<svg width="63" height="64" viewBox="0 0 63 64" fill="none" xmlns="http://www.w3.org/2000/svg">
<g clip-path="url(#clip0_35_15861)">
<path d="M10.6107 24.1582V44.9261C10.6107 49.8212 10.6107 52.2687 12.1314 53.7894C13.6521 55.3101 16.0996 55.3101 20.9947 55.3101H41.7626C46.6577 55.3101 49.1052 55.3101 50.6259 53.7894C52.1466 52.2687 52.1466 49.8212 52.1466 44.9261V24.1582" stroke="white" stroke-width="5.19199" stroke-linecap="round" stroke-linejoin="round"/>
<path d="M15.8027 24.1582L46.9547 24.1582C49.3738 24.1582 50.5834 24.1582 51.5375 23.763C52.8097 23.2361 53.8205 22.2253 54.3474 20.9531C54.7426 19.999 54.7426 18.7894 54.7426 16.3703V16.3703C54.7426 13.9511 54.7426 12.7415 54.3474 11.7874C53.8205 10.5152 52.8097 9.50445 51.5375 8.9775C50.5834 8.58228 49.3738 8.58228 46.9547 8.58228L29.0423 8.58228L15.8027 8.58228C13.3836 8.58228 12.174 8.58228 11.2199 8.9775C9.94769 9.50445 8.93694 10.5152 8.40999 11.7874C8.01477 12.7415 8.01477 13.9511 8.01477 16.3703C8.01477 18.7894 8.01477 19.999 8.40999 20.9531C8.93694 22.2253 9.94769 23.2361 11.2199 23.763C12.174 24.1582 13.3836 24.1582 15.8027 24.1582Z" stroke="white" stroke-width="5.19199" stroke-linecap="round" stroke-linejoin="round"/>
<path d="M23.5907 34.542L39.1667 34.542" stroke="white" stroke-width="5.19199" stroke-linecap="round" stroke-linejoin="round"/>
</g>
<defs>
<clipPath id="clip0_35_15861">
<rect width="62.3038" height="62.3038" fill="white" transform="translate(0.37854 0.946289)"/>
</clipPath>
</defs>
</svg>
