<svg width="19" height="19" viewBox="0 0 19 19" fill="none" xmlns="http://www.w3.org/2000/svg">
<path d="M15.935 16.5C11.535 20.9 -1.9 7.46505 2.50003 3.06503L3.73154 1.83348C4.65814 0.906855 6.21063 1.10681 6.87219 2.23798L7.40652 3.15159C7.79535 3.81642 7.76787 4.64546 7.33586 5.28309L6.9735 5.81793C6.57008 6.41337 6.64608 7.21136 7.15465 7.71994L9.21737 9.78268L11.2803 11.8453C11.7888 12.3538 12.5868 12.4298 13.1822 12.0264L13.7168 11.6642C14.3544 11.2322 15.1834 11.2047 15.8482 11.5935L16.7619 12.1279C17.8931 12.7894 18.0931 14.3419 17.1665 15.2685L15.935 16.5Z" stroke="white" stroke-width="2" stroke-linecap="round" stroke-linejoin="round"/>
</svg>
