<svg width="10" height="14" viewBox="0 0 10 14" fill="none" xmlns="http://www.w3.org/2000/svg">
<path d="M0.5 2.5V11.5C0.5 12.4428 0.5 12.9142 0.792893 13.2071C1.08579 13.5 1.55719 13.5 2.5 13.5H7.5C8.44281 13.5 8.91421 13.5 9.20711 13.2071C9.5 12.9142 9.5 12.4428 9.5 11.5V4.25932C9.5 3.84233 9.5 3.63383 9.42106 3.44713C9.34213 3.26042 9.19257 3.11516 8.89344 2.82464L7.08205 1.06531C6.79472 0.786245 6.65105 0.64671 6.47024 0.573355C6.28943 0.5 6.08915 0.5 5.68861 0.5H2.5C1.55719 0.5 1.08579 0.5 0.792893 0.792893C0.5 1.08579 0.5 1.55719 0.5 2.5Z" stroke="#2B2D42"/>
<path d="M6.5 1V2C6.5 2.94281 6.5 3.41421 6.79289 3.70711C7.08579 4 7.55719 4 8.5 4H9.5" stroke="#2B2D42"/>
</svg>
