<svg width="10" height="14" viewBox="0 0 10 14" fill="none" xmlns="http://www.w3.org/2000/svg">
<path d="M0.5 2.5V11.5C0.5 12.4428 0.5 12.9142 0.792893 13.2071C1.08579 13.5 1.55719 13.5 2.5 13.5H7.5C8.44281 13.5 8.91421 13.5 9.20711 13.2071C9.5 12.9142 9.5 12.4428 9.5 11.5V2.5C9.5 1.55719 9.5 1.08579 9.20711 0.792893C8.91421 0.5 8.44281 0.5 7.5 0.5H2.5C1.55719 0.5 1.08579 0.5 0.792893 0.792893C0.5 1.08579 0.5 1.55719 0.5 2.5Z" stroke="#2B2D42"/>
<path d="M3 9.5H6M3 6.5H7M3 3.5H7" stroke="#2B2D42" stroke-linecap="round" stroke-linejoin="round"/>
</svg>
