<svg width="63" height="64" viewBox="0 0 63 64" fill="none" xmlns="http://www.w3.org/2000/svg">
<g clip-path="url(#clip0_35_15844)">
<path d="M47.3215 24.1252C47.3215 25.3062 47.3215 25.8967 47.2836 26.4794C47.1585 28.4052 46.7246 30.2983 45.9984 32.0863C45.7787 32.6273 45.5215 33.1588 45.0071 34.222L35.3461 54.1878C33.7818 57.4209 32.9996 59.0374 31.7455 59.0374C30.4914 59.0374 29.7092 57.4209 28.1449 54.1878L18.484 34.222C17.9696 33.1588 17.7124 32.6273 17.4926 32.0863C16.7664 30.2983 16.3325 28.4052 16.2074 26.4794C16.1696 25.8967 16.1696 25.3062 16.1696 24.1252V24.1252C16.1696 20.9144 16.1696 19.3089 16.4749 17.9814C17.5049 13.5032 21.0016 10.0064 25.4798 8.97648C26.8073 8.67114 28.4534 8.67114 31.7455 8.67114V8.67114C35.0376 8.67114 36.6837 8.67114 38.0112 8.97648C42.4894 10.0064 45.9862 13.5032 47.0161 17.9814C47.3215 19.3089 47.3215 20.9144 47.3215 24.1252V24.1252Z" stroke="white" stroke-width="5.19199"/>
<path d="M36.9376 24.2469C36.9376 27.1144 34.613 29.4389 31.7456 29.4389C28.8781 29.4389 26.5536 27.1144 26.5536 24.2469C26.5536 21.3795 28.8781 19.0549 31.7456 19.0549C34.613 19.0549 36.9376 21.3795 36.9376 24.2469Z" fill="white"/>
</g>
<defs>
<clipPath id="clip0_35_15844">
<rect width="62.3038" height="62.3038" fill="white" transform="translate(0.593628 0.883057)"/>
</clipPath>
</defs>
</svg>
