<svg width="497" height="758" viewBox="0 0 497 758" fill="none" xmlns="http://www.w3.org/2000/svg">
<path d="M219.544 15.3218C218.744 0.521824 207.544 -0.844842 202.044 0.321824C173.294 0.321814 144.335 6.37426 122.044 14.0295C155.182 37.1269 221.479 84.5218 221.559 89.3218C221.003 57.4513 220.068 25.0086 219.544 15.3218Z" fill="#0F5628"/>
<path d="M209.544 164.822C219.544 173.822 221.544 164.322 221.544 157.322C222.259 146.841 222.066 118.318 221.559 89.3218C221.479 84.5218 155.182 37.1269 122.044 14.0295C109.833 18.2231 99.6228 22.8977 92.5442 27.3218C84.5441 32.3218 89.7396 44.3218 91.0441 47.3218C96.0443 58.8218 199.544 155.822 209.544 164.822Z" fill="#6CAC6E"/>
<path d="M259.765 15.3218C260.565 0.521824 271.765 -0.844842 277.265 0.321824C306.016 0.321814 334.975 6.37426 357.265 14.0295C369.477 18.2231 379.687 22.8977 386.765 27.3218C394.765 32.3218 389.57 44.3218 388.265 47.3218C384.672 55.5867 330.203 108.013 296.129 140.196C283.329 136.896 264.08 119.571 256.056 111.322C256.232 77.3316 258.277 37.4398 259.765 15.3218Z" fill="#0F5628"/>
<path d="M269.765 164.822C259.765 173.822 257.765 164.322 257.765 157.322C256.406 146.139 255.961 129.582 256.056 111.322C264.08 119.571 283.329 136.896 296.129 140.196C282.791 152.794 272.579 162.29 269.765 164.822Z" fill="#6CAC6E"/>
<path d="M447.543 82.8218C429.043 50.8218 415.543 69.3218 407.543 75.8218C369.259 105.385 340.094 136.421 318.094 166.822L398.064 238.822C426.035 211.794 449.485 189.146 455.543 183.822C472.043 169.322 469.543 163.322 471.043 150.822C467.543 113.822 461.043 109.822 447.543 82.8218Z" fill="#0F5628"/>
<path d="M263.543 361.822C265.043 361.822 274.543 355.822 279.043 351.322C288.106 345.072 348.346 286.863 396.276 240.549L398.064 238.822L318.094 166.822C262.402 243.781 252.623 316.675 257.043 351.322C257.043 357.822 262.043 361.822 263.543 361.822Z" fill="#6CAC6E"/>
<path d="M33.5444 82.8218C52.0444 50.8218 65.5446 69.3218 73.5446 75.8218C111.829 105.385 140.994 136.421 162.994 166.822L83.024 238.822C55.0529 211.794 31.6029 189.146 25.5444 183.822C9.04443 169.322 11.5444 163.322 10.0444 150.822C13.5444 113.822 20.0444 109.822 33.5444 82.8218Z" fill="#6CAC6E"/>
<path d="M217.544 361.822C216.044 361.822 206.544 355.822 202.044 351.322C192.982 345.072 132.742 286.863 84.8114 240.549L83.024 238.822L162.994 166.822C218.686 243.781 228.465 316.675 224.045 351.322C224.045 357.822 219.044 361.822 217.544 361.822Z" fill="#6CAC6E"/>
<path d="M195.544 498.5C220.044 500 217.544 497 221.044 484.5C224.108 451.473 200.472 408.64 166.835 366L22.516 392C70.0006 500.08 177.526 497.397 195.544 498.5Z" fill="#0F5628"/>
<path d="M17.0438 219C4.54375 208.909 2.54385 219 1.54385 227C-3.88017 299.893 5.43203 353.115 22.516 392L166.835 366C121.438 308.455 57.8256 251.262 17.0438 219Z" fill="#6CAC6E"/>
<path d="M285.811 498.322C261.311 499.822 263.811 496.822 260.311 484.322C257.246 451.295 280.882 408.461 314.52 365.822C320.721 357.961 327.262 350.107 334.039 342.322L474.993 338.822C471.101 358.935 465.574 376.492 458.839 391.822C411.354 499.901 303.828 497.219 285.811 498.322Z" fill="#0F5628"/>
<path d="M474.993 338.822L334.039 342.322C361.012 311.334 391.713 281.443 419.544 256.6L479.032 311.822C478.002 321.298 476.644 330.29 474.993 338.822Z" fill="#6CAC6E"/>
<path d="M464.311 218.822C476.811 208.731 478.811 218.822 479.811 226.822C482.189 258.788 481.734 286.972 479.032 311.822L419.544 256.6C435.905 241.995 451.274 229.135 464.311 218.822Z" fill="#0F5628"/>
<path d="M228.544 9.82184C233.377 59.6552 240.144 162.122 228.544 173.322" stroke="url(#paint0_linear_485_48)" stroke-width="7" stroke-linecap="round"/>
<path d="M404 42C404 61 366.544 95.0218 278.544 173.822" stroke="url(#paint1_linear_485_48)" stroke-width="7" stroke-linecap="round"/>
<path d="M464.544 89.3218C478.544 112.989 497.144 168.222 459.544 199.822C421.944 231.422 321.877 326.655 276.544 370.322" stroke="url(#paint2_linear_485_48)" stroke-width="7" stroke-linecap="round"/>
<path d="M489.544 222C502.377 307 487.244 482.5 324.044 504.5" stroke="url(#paint3_linear_485_48)" stroke-width="7" stroke-linecap="round"/>
<path d="M222.544 435.5C229.044 453.333 239.044 492.3 227.044 505.5" stroke="url(#paint4_linear_485_48)" stroke-width="7" stroke-linecap="round"/>
<path d="M207.544 221.822C221.044 251.322 244.544 322.122 230.544 369.322" stroke="url(#paint5_linear_485_48)" stroke-width="7" stroke-linecap="round"/>
<path d="M440.384 551.137C440.211 549.092 438.484 547.5 436.432 547.5H416.544C414.335 547.5 412.544 549.291 412.544 551.5V579.318C412.544 579.769 412.471 580.218 412.308 580.639C409.95 586.729 403.884 594.295 396.544 580V547.5H372.044C369.835 547.5 368.044 549.291 368.044 551.5V579.44C368.044 579.811 367.994 580.18 367.885 580.536C365.75 587.478 360.062 596.375 353.044 580V547.5H330.044C327.835 547.5 326.044 549.291 326.044 551.5V579.166C326.044 579.716 325.935 580.261 325.699 580.758C322.663 587.162 315.814 595.002 310.044 580V547.5H286.544C284.335 547.5 282.544 549.291 282.544 551.5V584.5C282.544 586.709 280.753 588.5 278.544 588.5H212.544C210.335 588.5 208.544 586.709 208.544 584.5V551.5C208.544 549.291 206.753 547.5 204.544 547.5H182.544C180.335 547.5 178.544 549.291 178.544 551.5V623.5C178.544 626.167 177.144 631.8 171.544 633V657C183.877 657.5 208.544 650.2 208.544 617H282.544C288.075 613.05 300.647 607.601 308.755 615.569C309.621 616.42 310.751 616.999 311.963 617.084C316.77 617.419 323.988 618.337 338.097 611.474C339.315 610.882 340.749 610.914 341.947 611.544C348.383 614.93 355.084 617 360.544 617C366.008 617 373.13 615.342 379.267 611.647C380.401 610.965 381.805 610.751 382.964 611.39C387.428 613.847 387.838 617 402.044 617C417.733 617 445.441 611.231 440.384 551.137Z" fill="#0F5628"/>
<path fill-rule="evenodd" clip-rule="evenodd" d="M341.544 626V663H427.044V642H402.044V626H341.544ZM396.544 633H349.044V657H420.544V647.5H396.544V633Z" fill="#0F5628"/>
<circle cx="297.044" cy="643" r="15" fill="#0F5628"/>
<circle cx="194.044" cy="520" r="15" fill="#0F5628"/>
<circle cx="145.044" cy="580" r="17.5" stroke="#0F5628" stroke-width="5"/>
<circle cx="110.044" cy="580" r="17.5" stroke="#0F5628" stroke-width="5"/>
<path d="M452.544 552.5C455.877 575.833 453.444 623.2 417.044 626" stroke="url(#paint6_linear_485_48)" stroke-width="6" stroke-linecap="round"/>
<path d="M344.544 705.5V676C344.544 675.448 344.985 675 345.537 675H386.544C411.044 675 423.544 699 423.544 715C423.544 755 391.544 754 383.044 754C327.02 755.966 322.679 750.686 313.052 746.707C312.738 746.577 312.371 746.624 312.092 746.817C293.636 759.593 275.244 751.802 264.707 746.815C264.309 746.627 263.84 746.726 263.532 747.04C252.465 758.363 234.006 754 231.544 754C229.15 754 223.549 751.25 218.25 747.067C217.846 746.749 217.269 746.778 216.888 747.122C212.486 751.087 205.706 753.317 202.643 753.979C202.575 753.993 202.591 754 202.522 754H54.0439C103.396 754 104.036 732.079 111.256 723.818C111.438 723.61 111.701 723.5 111.977 723.5H201.544C202.096 723.5 202.544 723.052 202.544 722.5V676C202.544 675.448 202.992 675 203.544 675H233.044C233.596 675 234.044 675.444 234.044 675.996V715.734C234.044 715.911 234.095 716.088 234.186 716.24C240.838 727.347 247.05 720.984 249.444 716.203C249.511 716.069 249.544 715.922 249.544 715.771V676C249.544 675.448 249.992 675 250.544 675H281.044C281.596 675 282.044 675.446 282.044 675.998V715.749C282.044 715.918 282.09 716.085 282.173 716.232C288.439 727.343 294.869 720.994 297.432 716.213C297.507 716.072 297.544 715.917 297.544 715.757V676C297.544 675.448 297.992 675 298.544 675H329.044C329.596 675 330.044 675.448 330.044 676V711.5C330.044 723.1 335.711 723.5 344.544 723.5H383.044C395.044 723.5 391.544 716.5 391.544 711.5C391.544 707.5 385.877 706.5 383.044 706.5H345.544C344.992 706.5 344.544 706.052 344.544 705.5Z" stroke="#0F5628" stroke-width="6" stroke-linecap="round"/>
<path d="M169.544 691.572V661.644C169.544 661.038 168.999 660.574 168.398 660.647C148.577 663.066 144.217 656.935 144.544 653.5V612C144.544 611.448 144.096 611 143.544 611H112.544C111.992 611 111.544 611.444 111.544 611.996V653.225C111.544 653.408 111.49 653.59 111.394 653.745C103.55 666.445 96.3735 659.151 93.6443 653.704C93.5766 653.569 93.5439 653.421 93.5439 653.27V612C93.5439 611.448 93.0962 611 92.5439 611H64.044C63.4917 611 63.044 611.448 63.044 612V708C63.044 708.552 62.5962 709 62.044 709H55.0439C54.4917 709 54.0439 709.442 54.0439 709.994V740.5C54.0439 741.053 54.5186 741.501 55.0709 741.493C97.6143 740.883 93.9473 702.353 93.5704 693.479C93.5469 692.927 93.9837 692.501 94.5359 692.498C99.9864 692.466 119.54 692.02 127.216 685.747C127.677 685.37 128.367 685.408 128.793 685.826C135.929 692.823 157.532 693.283 168.622 692.564C169.145 692.53 169.544 692.095 169.544 691.572Z" stroke="#0F5628" stroke-width="6" stroke-linecap="round"/>
<path d="M220.044 553.5V577.5" stroke="url(#paint7_linear_485_48)" stroke-width="6" stroke-linecap="round"/>
<path d="M219.044 521C218.544 525.5 216.444 535.2 212.044 538" stroke="url(#paint8_linear_485_48)" stroke-width="6" stroke-linecap="round"/>
<path d="M219.044 629C219.044 636.833 213.444 655 191.044 665" stroke="url(#paint9_linear_485_48)" stroke-width="6" stroke-linecap="round"/>
<path d="M322.044 645.5C322.711 649.833 321.044 660 309.044 666" stroke="#0F5628" stroke-width="6" stroke-linecap="round"/>
<defs>
<linearGradient id="paint0_linear_485_48" x1="231.746" y1="9.82184" x2="231.746" y2="173.322" gradientUnits="userSpaceOnUse">
<stop stop-color="#0F5628"/>
<stop offset="1" stop-color="#6CAC6E"/>
</linearGradient>
<linearGradient id="paint1_linear_485_48" x1="343.044" y1="41.3218" x2="343.044" y2="173.822" gradientUnits="userSpaceOnUse">
<stop stop-color="#0F5628"/>
<stop offset="1" stop-color="#6CAC6E"/>
</linearGradient>
<linearGradient id="paint2_linear_485_48" x1="379.129" y1="89.3218" x2="379.129" y2="370.322" gradientUnits="userSpaceOnUse">
<stop stop-color="#0F5628"/>
<stop offset="1" stop-color="#6CAC6E"/>
</linearGradient>
<linearGradient id="paint3_linear_485_48" x1="408.559" y1="222" x2="408.559" y2="504.5" gradientUnits="userSpaceOnUse">
<stop stop-color="#0F5628"/>
<stop offset="1" stop-color="#6CAC6E"/>
</linearGradient>
<linearGradient id="paint4_linear_485_48" x1="227.6" y1="435.5" x2="227.6" y2="505.5" gradientUnits="userSpaceOnUse">
<stop stop-color="#0F5628"/>
<stop offset="1" stop-color="#6CAC6E"/>
</linearGradient>
<linearGradient id="paint5_linear_485_48" x1="221.195" y1="221.822" x2="221.195" y2="369.322" gradientUnits="userSpaceOnUse">
<stop stop-color="#0F5628"/>
<stop offset="1" stop-color="#6CAC6E"/>
</linearGradient>
<linearGradient id="paint6_linear_485_48" x1="435.335" y1="552.5" x2="435.335" y2="626" gradientUnits="userSpaceOnUse">
<stop stop-color="#0F5628"/>
<stop offset="1" stop-color="#6CAC6E"/>
</linearGradient>
<linearGradient id="paint7_linear_485_48" x1="220.544" y1="553.5" x2="220.544" y2="577.5" gradientUnits="userSpaceOnUse">
<stop stop-color="#0F5628"/>
<stop offset="1" stop-color="#6CAC6E"/>
</linearGradient>
<linearGradient id="paint8_linear_485_48" x1="215.544" y1="521" x2="215.544" y2="538" gradientUnits="userSpaceOnUse">
<stop stop-color="#0F5628"/>
<stop offset="1" stop-color="#6CAC6E"/>
</linearGradient>
<linearGradient id="paint9_linear_485_48" x1="205.044" y1="629" x2="205.044" y2="665" gradientUnits="userSpaceOnUse">
<stop stop-color="#0F5628"/>
<stop offset="1" stop-color="#6CAC6E"/>
</linearGradient>
</defs>
</svg>
